<?xml version="1.0" encoding="UTF-8" standalone="no"?>
<svg
   xmlns:dc="http://purl.org/dc/elements/1.1/"
   xmlns:cc="http://creativecommons.org/ns#"
   xmlns:rdf="http://www.w3.org/1999/02/22-rdf-syntax-ns#"
   xmlns:svg="http://www.w3.org/2000/svg"
   xmlns="http://www.w3.org/2000/svg"
   xmlns:sodipodi="http://sodipodi.sourceforge.net/DTD/sodipodi-0.dtd"
   xmlns:inkscape="http://www.inkscape.org/namespaces/inkscape"
   height="25"
   width="25"
   id="svg2"
   version="1.1"
   inkscape:version="0.48.4 r9939"
   sodipodi:docname="gp.svg">
  <metadata
     id="metadata12">
    <rdf:RDF>
      <cc:Work
         rdf:about="">
        <dc:format>image/svg+xml</dc:format>
        <dc:type
           rdf:resource="http://purl.org/dc/dcmitype/StillImage" />
      </cc:Work>
    </rdf:RDF>
  </metadata>
  <defs
     id="defs10" />
  <sodipodi:namedview
     pagecolor="#ffffff"
     bordercolor="#666666"
     borderopacity="1"
     objecttolerance="10"
     gridtolerance="10"
     guidetolerance="10"
     inkscape:pageopacity="0"
     inkscape:pageshadow="2"
     inkscape:window-width="1366"
     inkscape:window-height="713"
     id="namedview8"
     showgrid="false"
     inkscape:zoom="7.3740779"
     inkscape:cx="-12.072306"
     inkscape:cy="16.002001"
     inkscape:window-x="0"
     inkscape:window-y="24"
     inkscape:window-maximized="1"
     inkscape:current-layer="svg2" />
  <g
     id="g3761">
    <path
       transform="matrix(1.3966057,0,0,1.3966057,69.886364,25.76037)"
       d="m -32.13961,-9.4947128 a 8.9502716,8.9502716 0 1 1 -17.900544,0 8.9502716,8.9502716 0 1 1 17.900544,0 z"
       sodipodi:ry="8.9502716"
       sodipodi:rx="8.9502716"
       sodipodi:cy="-9.4947128"
       sodipodi:cx="-41.089882"
       id="path2983"
       style="opacity:0;fill:#b3b3b3;fill-opacity:1;fill-rule:nonzero;stroke:none"
       sodipodi:type="arc" />
    <g
       transform="matrix(0.9992672,0,0,0.99914713,-4.954699,-3.456209)"
       id="g2986">
      <path
         style="fill:#ffffff"
         inkscape:connector-curvature="0"
         d="m 18.519,17.225 c -1.633,-1.163 -2.243,-1.712 -1.197,-2.633 1.045,-0.923 1.872,-1.669 1.872,-3.382 L 17.779,8.621 c 0,0 1.023,0.152 1.568,-0.154 l 0.782,-0.504 h -5.204 c -1.044,0 -3.939,1.184 -3.939,3.949 0,2.767 3.004,3.359 4.094,3.315 -0.61,0.747 -0.088,1.427 0.239,1.776 0.327,0.352 0.261,0.461 -0.13,0.461 -0.393,0 -5.227,0.053 -5.227,3.514 0,3.461 6.423,3.711 8.535,1.846 2.111,-1.865 1.654,-4.437 0.022,-5.599 z m -3.092,-2.678 c -2.592,0 -3.768,-6.058 -0.719,-6.058 2.373,-0.089 4.158,6.058 0.719,6.058 z M 15.12,23.02 c -2.154,0 -3.309,-1.075 -3.309,-2.678 0,-1.604 1.568,-2.393 4.508,-2.393 0.797,0.613 2.221,1.359 2.221,2.854 0,1.493 -1.268,2.217 -3.42,2.217 z M 23.014,9.972 v -1.97 h -1.017 v 1.97 h -1.992 v 1.022 h 1.992 v 1.973 h 1.017 v -1.973 h 1.959 V 9.972 h -1.959 z"
         id="path6" />
    </g>
  </g>
</svg>
